<?xml version="1.0" encoding="UTF-8" standalone="no"?>
<!DOCTYPE svg PUBLIC "-//W3C//DTD SVG 1.1//EN"
 "http://www.w3.org/Graphics/SVG/1.1/DTD/svg11.dtd">
<!-- Generated by graphviz version 12.2.1 (0)
 -->
<!-- Pages: 1 -->
<svg width="504pt" height="322pt"
 viewBox="0.00 0.00 503.75 322.13" xmlns="http://www.w3.org/2000/svg" xmlns:xlink="http://www.w3.org/1999/xlink">
<g id="graph0" class="graph" transform="scale(1 1) rotate(0) translate(4 318.13)">
<polygon fill="white" stroke="none" points="-4,4 -4,-318.13 499.75,-318.13 499.75,4 -4,4"/>
<!-- CanwenWang -->
<g id="node1" class="node">
<title>CanwenWang</title>
<polygon fill="#e0eeee" stroke="black" points="279.5,-314.13 184,-314.13 184,-264.13 279.5,-264.13 279.5,-314.13"/>
<text text-anchor="middle" x="231.75" y="-296.83" font-family="Times,serif" font-size="14.00">王灿文</text>
<text text-anchor="middle" x="231.75" y="-275.83" font-family="Times,serif" font-size="14.00">« 二十三世 »</text>
</g>
<!-- h0 -->
<g id="node10" class="node">
<title>h0</title>
<ellipse fill="none" stroke="black" cx="297.75" cy="-289.13" rx="0.72" ry="0.72"/>
</g>
<!-- CanwenWang&#45;&gt;h0 -->
<g id="edge1" class="edge">
<title>CanwenWang&#45;&gt;h0</title>
<path fill="none" stroke="black" d="M279.96,-289.13C285.52,-289.13 291.08,-289.13 296.64,-289.13"/>
</g>
<!-- ZhangshiWang -->
<g id="node2" class="node">
<title>ZhangshiWang</title>
<polygon fill="bisque" stroke="black" points="373,-307.13 316.5,-307.13 316.5,-271.13 373,-271.13 373,-307.13"/>
<text text-anchor="middle" x="344.75" y="-286.33" font-family="Times,serif" font-size="14.00">王张氏</text>
</g>
<!-- KuntaoWang -->
<g id="node3" class="node">
<title>KuntaoWang</title>
<polygon fill="#e0eeee" stroke="black" points="200.5,-190.69 105,-190.69 105,-140.69 200.5,-140.69 200.5,-190.69"/>
<text text-anchor="middle" x="152.75" y="-173.39" font-family="Times,serif" font-size="14.00">王坤涛</text>
<text text-anchor="middle" x="152.75" y="-152.39" font-family="Times,serif" font-size="14.00">« 二十四世 »</text>
</g>
<!-- h1 -->
<g id="node14" class="node">
<title>h1</title>
<ellipse fill="none" stroke="black" cx="218.75" cy="-165.69" rx="0.72" ry="0.72"/>
</g>
<!-- KuntaoWang&#45;&gt;h1 -->
<g id="edge8" class="edge">
<title>KuntaoWang&#45;&gt;h1</title>
<path fill="none" stroke="black" d="M200.96,-165.69C206.52,-165.69 212.08,-165.69 217.64,-165.69"/>
</g>
<!-- KunpingWang -->
<g id="node4" class="node">
<title>KunpingWang</title>
<polygon fill="#e0eeee" stroke="black" points="407.5,-190.69 312,-190.69 312,-140.69 407.5,-140.69 407.5,-190.69"/>
<text text-anchor="middle" x="359.75" y="-173.39" font-family="Times,serif" font-size="14.00">王坤坪</text>
<text text-anchor="middle" x="359.75" y="-152.39" font-family="Times,serif" font-size="14.00">« 二十四世 »</text>
</g>
<!-- FanqingKong -->
<g id="node5" class="node">
<title>FanqingKong</title>
<polygon fill="bisque" stroke="black" points="294,-183.69 237.5,-183.69 237.5,-147.69 294,-147.69 294,-183.69"/>
<text text-anchor="middle" x="265.75" y="-162.89" font-family="Times,serif" font-size="14.00">孔繁清</text>
</g>
<!-- FanqingKong&#45;&gt;KunpingWang -->
<!-- XichunWang -->
<g id="node6" class="node">
<title>XichunWang</title>
<polygon fill="#e0eeee" stroke="black" points="95.5,-58.62 0,-58.62 0,-8.62 95.5,-8.62 95.5,-58.62"/>
<text text-anchor="middle" x="47.75" y="-41.33" font-family="Times,serif" font-size="14.00">王锡椿</text>
<text text-anchor="middle" x="47.75" y="-20.32" font-family="Times,serif" font-size="14.00">« 二十五世 »</text>
</g>
<!-- XihuaWang -->
<g id="node7" class="node">
<title>XihuaWang</title>
<polygon fill="#e0eeee" stroke="black" points="209.5,-58.62 114,-58.62 114,-8.62 209.5,-8.62 209.5,-58.62"/>
<text text-anchor="middle" x="161.75" y="-41.33" font-family="Times,serif" font-size="14.00">王錫华</text>
<text text-anchor="middle" x="161.75" y="-20.32" font-family="Times,serif" font-size="14.00">« 二十五世 »</text>
</g>
<!-- XichunWang&#45;&gt;XihuaWang -->
<!-- XijunWang -->
<g id="node8" class="node">
<title>XijunWang</title>
<polygon fill="bisque" stroke="black" points="323.5,-58.62 228,-58.62 228,-8.62 323.5,-8.62 323.5,-58.62"/>
<text text-anchor="middle" x="275.75" y="-41.33" font-family="Times,serif" font-size="14.00">王锡君</text>
<text text-anchor="middle" x="275.75" y="-20.32" font-family="Times,serif" font-size="14.00">« 二十五世 »</text>
</g>
<!-- XihuaWang&#45;&gt;XijunWang -->
<!-- XiqingWang -->
<g id="node9" class="node">
<title>XiqingWang</title>
<polygon fill="#e0eeee" stroke="black" points="495.75,-67.25 341.75,-67.25 341.75,0 495.75,0 495.75,-67.25"/>
<text text-anchor="middle" x="418.75" y="-49.95" font-family="Times,serif" font-size="14.00">王锡卿</text>
<text text-anchor="middle" x="418.75" y="-28.95" font-family="Times,serif" font-size="14.00">« 二十五世 »</text>
<text text-anchor="middle" x="418.75" y="-7.95" font-family="Times,serif" font-size="14.00">1925&#45;08&#45;28 ~ 1997</text>
</g>
<!-- XijunWang&#45;&gt;XiqingWang -->
<!-- h0&#45;&gt;ZhangshiWang -->
<g id="edge2" class="edge">
<title>h0&#45;&gt;ZhangshiWang</title>
<path fill="none" stroke="black" d="M298.85,-289.13C304.59,-289.13 310.33,-289.13 316.06,-289.13"/>
</g>
<!-- h0_1 -->
<g id="node12" class="node">
<title>h0_1</title>
<ellipse fill="none" stroke="black" cx="297.75" cy="-227.41" rx="0.72" ry="0.72"/>
</g>
<!-- h0&#45;&gt;h0_1 -->
<g id="edge5" class="edge">
<title>h0&#45;&gt;h0_1</title>
<path fill="none" stroke="black" d="M297.75,-287.96C297.75,-284.55 297.75,-231.6 297.75,-228.29"/>
</g>
<!-- h0_0 -->
<g id="node11" class="node">
<title>h0_0</title>
<ellipse fill="none" stroke="black" cx="236.75" cy="-227.41" rx="0.72" ry="0.72"/>
</g>
<!-- h0_0&#45;&gt;KuntaoWang -->
<g id="edge6" class="edge">
<title>h0_0&#45;&gt;KuntaoWang</title>
<path fill="none" stroke="black" d="M236.51,-226.52C233.8,-224.58 208.66,-206.63 186.63,-190.89"/>
</g>
<!-- h0_0&#45;&gt;h0_1 -->
<g id="edge3" class="edge">
<title>h0_0&#45;&gt;h0_1</title>
<path fill="none" stroke="black" d="M237.7,-227.41C257.41,-227.41 277.11,-227.41 296.81,-227.41"/>
</g>
<!-- h0_2 -->
<g id="node13" class="node">
<title>h0_2</title>
<ellipse fill="none" stroke="black" cx="337.75" cy="-227.41" rx="0.72" ry="0.72"/>
</g>
<!-- h0_1&#45;&gt;h0_2 -->
<g id="edge4" class="edge">
<title>h0_1&#45;&gt;h0_2</title>
<path fill="none" stroke="black" d="M298.69,-227.41C311.4,-227.41 324.12,-227.41 336.83,-227.41"/>
</g>
<!-- h0_2&#45;&gt;KunpingWang -->
<g id="edge7" class="edge">
<title>h0_2&#45;&gt;KunpingWang</title>
<path fill="none" stroke="black" d="M337.89,-226.31C338.91,-223.53 345.26,-206.19 350.86,-190.93"/>
</g>
<!-- h1&#45;&gt;FanqingKong -->
<g id="edge9" class="edge">
<title>h1&#45;&gt;FanqingKong</title>
<path fill="none" stroke="black" d="M219.85,-165.69C225.59,-165.69 231.33,-165.69 237.06,-165.69"/>
</g>
<!-- h1_2 -->
<g id="node17" class="node">
<title>h1_2</title>
<ellipse fill="none" stroke="black" cx="218.75" cy="-103.97" rx="0.72" ry="0.72"/>
</g>
<!-- h1&#45;&gt;h1_2 -->
<g id="edge15" class="edge">
<title>h1&#45;&gt;h1_2</title>
<path fill="none" stroke="black" d="M218.75,-164.52C218.75,-161.11 218.75,-108.16 218.75,-104.85"/>
</g>
<!-- h1_0 -->
<g id="node15" class="node">
<title>h1_0</title>
<ellipse fill="none" stroke="black" cx="95.75" cy="-103.97" rx="0.72" ry="0.72"/>
</g>
<!-- h1_0&#45;&gt;XichunWang -->
<g id="edge16" class="edge">
<title>h1_0&#45;&gt;XichunWang</title>
<path fill="none" stroke="black" d="M95.44,-102.81C93.08,-99.43 77.51,-77.17 64.79,-58.99"/>
</g>
<!-- h1_1 -->
<g id="node16" class="node">
<title>h1_1</title>
<ellipse fill="none" stroke="black" cx="161.75" cy="-103.97" rx="0.72" ry="0.72"/>
</g>
<!-- h1_0&#45;&gt;h1_1 -->
<g id="edge11" class="edge">
<title>h1_0&#45;&gt;h1_1</title>
<path fill="none" stroke="black" d="M96.78,-103.97C118.1,-103.97 139.42,-103.97 160.73,-103.97"/>
</g>
<!-- h1_1&#45;&gt;XihuaWang -->
<g id="edge17" class="edge">
<title>h1_1&#45;&gt;XihuaWang</title>
<path fill="none" stroke="black" d="M161.75,-102.81C161.75,-99.43 161.75,-77.17 161.75,-58.99"/>
</g>
<!-- h1_1&#45;&gt;h1_2 -->
<g id="edge12" class="edge">
<title>h1_1&#45;&gt;h1_2</title>
<path fill="none" stroke="black" d="M162.64,-103.97C181.05,-103.97 199.46,-103.97 217.87,-103.97"/>
</g>
<!-- h1_3 -->
<g id="node18" class="node">
<title>h1_3</title>
<ellipse fill="none" stroke="black" cx="275.75" cy="-103.97" rx="0.72" ry="0.72"/>
</g>
<!-- h1_2&#45;&gt;h1_3 -->
<g id="edge13" class="edge">
<title>h1_2&#45;&gt;h1_3</title>
<path fill="none" stroke="black" d="M219.64,-103.97C238.05,-103.97 256.46,-103.97 274.87,-103.97"/>
</g>
<!-- h1_3&#45;&gt;XijunWang -->
<g id="edge18" class="edge">
<title>h1_3&#45;&gt;XijunWang</title>
<path fill="none" stroke="black" d="M275.75,-102.81C275.75,-99.43 275.75,-77.17 275.75,-58.99"/>
</g>
<!-- h1_4 -->
<g id="node19" class="node">
<title>h1_4</title>
<ellipse fill="none" stroke="black" cx="356.75" cy="-103.97" rx="0.72" ry="0.72"/>
</g>
<!-- h1_3&#45;&gt;h1_4 -->
<g id="edge14" class="edge">
<title>h1_3&#45;&gt;h1_4</title>
<path fill="none" stroke="black" d="M276.7,-103.97C303.07,-103.97 329.44,-103.97 355.81,-103.97"/>
</g>
<!-- h1_4&#45;&gt;XiqingWang -->
<g id="edge19" class="edge">
<title>h1_4&#45;&gt;XiqingWang</title>
<path fill="none" stroke="black" d="M356.93,-103.05C358.73,-101.06 373.96,-84.2 388.85,-67.72"/>
</g>
</g>
</svg>
